<?xml version="1.0" standalone="no"?>
<!DOCTYPE svg PUBLIC "-//W3C//DTD SVG 20010904//EN"
 "http://www.w3.org/TR/2001/REC-SVG-20010904/DTD/svg10.dtd">
<svg version="1.0" xmlns="http://www.w3.org/2000/svg"
 width="764.000000pt" height="764.000000pt" viewBox="0 0 764.000000 764.000000"
 preserveAspectRatio="xMidYMid meet">
<metadata>
Created by potrace 1.14, written by Peter Selinger 2001-2017
</metadata>
<g transform="translate(0.000000,764.000000) scale(0.100000,-0.100000)"
fill="#000000" stroke="none">
<path d="M40 3820 l0 -3820 3780 0 3780 0 0 3820 0 3820 -3780 0 -3780 0 0
-3820z m2680 3015 c-7 -8 -16 -12 -21 -9 -13 8 -1 24 18 24 13 0 13 -3 3 -15z
m150 -85 c0 -29 8 -42 20 -35 5 3 4 20 0 39 -7 33 3 66 20 66 6 0 10 -8 10
-19 0 -10 7 -24 15 -31 12 -10 16 -8 25 15 6 15 13 25 18 23 4 -2 24 -12 44
-21 20 -9 43 -26 51 -37 11 -15 23 -19 55 -16 23 2 48 9 57 16 19 16 43 6 54
-22 8 -20 16 -23 62 -23 55 0 57 2 44 43 -9 32 14 28 50 -9 17 -17 41 -35 54
-40 22 -9 23 -10 7 -28 -10 -11 -16 -30 -14 -43 4 -30 34 -36 43 -9 3 12 15
21 25 21 11 0 35 14 55 31 l36 32 23 -22 c23 -22 60 -28 70 -12 10 16 76 -10
76 -30 0 -22 29 -39 65 -39 31 0 59 -25 51 -45 -8 -21 38 -49 68 -41 28 7 56
-1 56 -17 0 -16 31 -47 47 -47 20 0 143 -124 143 -143 0 -9 11 -24 25 -35 14
-11 25 -27 25 -36 0 -9 15 -19 40 -26 32 -9 40 -15 40 -34 0 -13 -7 -29 -15
-36 -23 -19 -18 -31 13 -28 21 2 27 -1 27 -17 0 -11 8 -26 18 -33 9 -7 17 -18
17 -24 0 -6 6 -19 14 -27 20 -22 76 -130 76 -146 0 -7 7 -18 15 -25 9 -8 13
-21 9 -37 -5 -17 -1 -28 11 -37 12 -9 16 -21 13 -39 -3 -18 1 -32 13 -43 11
-10 19 -23 19 -30 0 -7 7 -17 16 -22 11 -6 15 -17 12 -30 -4 -15 1 -26 19 -37
17 -12 21 -20 14 -29 -7 -8 -6 -19 4 -36 8 -14 17 -31 21 -37 3 -7 -1 -20 -10
-28 -20 -21 -21 -44 -1 -51 25 -10 19 -63 -9 -75 -13 -6 -27 -19 -31 -28 -22
-58 -35 -67 -89 -62 -10 1 -33 -14 -50 -33 -17 -19 -42 -37 -56 -41 -14 -4
-34 -15 -45 -25 -11 -10 -37 -25 -57 -34 -21 -8 -38 -21 -38 -29 0 -16 -47
-61 -73 -70 -13 -5 -16 -14 -12 -32 3 -14 7 -36 10 -49 4 -21 9 -24 36 -19 17
2 70 24 116 49 47 24 93 44 103 44 10 0 20 8 22 18 6 21 69 34 178 36 l65 1
18 -39 c21 -44 16 -53 -34 -66 -56 -15 -152 -49 -181 -65 -14 -8 -34 -15 -44
-15 -19 0 -140 -65 -149 -80 -3 -6 -14 -10 -24 -10 -10 0 -40 -11 -66 -26 -34
-17 -51 -22 -58 -15 -16 16 -47 13 -47 -4 0 -22 -38 -27 -157 -21 -261 14
-407 8 -553 -22 -202 -43 -305 -69 -343 -88 -16 -8 -42 -14 -58 -14 -17 0 -32
-6 -35 -15 -11 -27 -124 -67 -166 -58 -21 4 -28 1 -28 -10 0 -9 5 -19 10 -22
17 -10 0 -26 -17 -17 -14 9 -74 -6 -89 -21 -4 -4 -25 -7 -46 -7 -56 0 -48 -29
15 -51 77 -28 92 -51 66 -101 -8 -15 -17 -18 -36 -13 -27 6 -63 -17 -63 -42 0
-7 -4 -13 -10 -13 -5 0 -10 10 -10 23 0 12 -9 39 -20 60 -24 44 -26 100 -5
117 20 17 19 26 -6 49 -15 14 -30 18 -49 15 -14 -3 -78 0 -141 6 -63 7 -134
14 -159 15 -108 7 -294 26 -335 35 -24 5 -51 7 -59 4 -8 -3 -25 1 -38 10 -12
9 -37 16 -56 16 -20 0 -31 4 -27 10 3 6 18 10 32 10 24 0 25 1 11 23 -9 12
-28 24 -44 27 -26 5 -29 9 -31 48 -1 32 3 45 17 52 15 8 18 18 13 44 -3 18 0
42 5 53 8 15 7 25 -4 42 -10 14 -13 32 -9 50 5 26 4 29 -13 24 -16 -4 -20 2
-26 37 -3 22 -13 60 -22 83 -9 23 -15 56 -15 74 1 25 -6 38 -34 60 -25 20 -35
36 -35 56 0 17 -5 27 -15 27 -26 0 -37 37 -21 68 8 16 15 38 14 48 0 10 3 27
7 36 5 12 2 20 -9 24 -20 8 -21 30 -1 38 19 7 19 30 0 50 -12 12 -13 20 -3 40
8 20 8 32 0 51 -15 32 -15 65 -2 65 19 0 31 49 17 71 -10 16 -9 25 4 48 13 22
14 32 5 41 -8 9 -5 16 12 30 29 24 28 38 -4 50 -24 9 -24 11 -10 32 9 12 16
31 16 40 0 10 10 22 23 27 31 12 45 30 49 66 2 18 9 30 18 30 53 2 62 48 15
79 -24 16 -24 17 -7 46 9 16 22 30 29 30 16 0 22 22 11 43 -7 14 -5 23 10 37
25 24 32 17 32 -32 0 -47 25 -52 34 -7 5 27 8 30 21 19 19 -16 19 -34 0 -50
-8 -7 -15 -22 -15 -34 0 -12 -7 -32 -16 -45 -10 -14 -13 -26 -7 -30 6 -3 13
-19 17 -34 7 -30 26 -28 26 3 0 32 11 49 46 71 38 23 54 19 54 -17 0 -16 6
-24 18 -24 27 0 48 21 61 59 15 46 -1 64 -30 35 -19 -20 -19 -22 -4 -38 10 -9
15 -20 12 -23 -12 -11 -37 7 -57 39 -10 18 -28 44 -40 56 -25 29 -25 43 -2 72
26 32 62 20 62 -21 0 -24 4 -29 24 -29 13 0 29 7 36 15 7 8 23 15 35 15 12 0
28 7 35 15 7 8 20 15 30 15 10 0 20 9 23 20 3 14 14 20 31 20 16 0 26 6 26 15
0 8 -8 15 -17 15 -19 0 -53 28 -53 44 0 6 7 22 16 34 15 22 16 22 42 4 15 -11
33 -17 40 -14 8 2 25 -1 38 -8 18 -10 27 -10 38 -1 8 7 25 9 39 6 35 -9 63 9
70 44 6 27 10 29 67 36 59 7 75 17 45 29 -25 9 -17 24 21 36 32 11 35 15 29
41 -6 24 -3 31 19 40 14 7 26 20 26 30 0 27 17 32 66 19 60 -17 63 -27 12 -41
-24 -6 -47 -14 -53 -17 -5 -4 -14 -7 -19 -7 -5 0 -11 -5 -13 -11 -2 -7 24 -10
77 -10 88 1 84 -2 69 56 -3 12 4 14 31 12 32 -3 37 0 48 30 l13 33 29 -35 c17
-19 30 -46 30 -60z m-660 19 c0 -5 -4 -9 -10 -9 -5 0 -10 7 -10 16 0 8 5 12
10 9 6 -3 10 -10 10 -16z m297 -25 c2 -6 -8 -16 -21 -22 -16 -7 -28 -24 -34
-44 -4 -18 -18 -38 -31 -44 -12 -6 -34 -22 -48 -34 -27 -24 -97 -45 -114 -35
-26 17 22 75 63 75 10 0 21 8 24 18 12 37 22 48 70 74 50 27 85 32 91 12z
m-253 -23 c22 -24 15 -37 -24 -46 -17 -4 -37 -14 -46 -22 -14 -14 -17 -13 -39
7 -24 22 -24 50 0 50 7 0 15 -7 19 -15 8 -22 19 -18 41 15 24 35 27 36 49 11z
m-188 -82 c10 -17 -13 -36 -27 -22 -12 12 -4 33 11 33 5 0 12 -5 16 -11z
m-106 -44 c0 -37 -22 -49 -34 -19 -9 23 2 54 20 54 9 0 14 -11 14 -35z m-95
-5 c-5 -8 -11 -8 -17 -2 -6 6 -7 16 -3 22 5 8 11 8 17 2 6 -6 7 -16 3 -22z
m350 20 c3 -5 -3 -10 -15 -10 -12 0 -18 5 -15 10 3 6 10 10 15 10 5 0 12 -4
15 -10z m-225 -82 c0 -13 -23 -5 -28 10 -2 7 2 10 12 6 9 -3 16 -11 16 -16z
m-147 -22 c6 -15 -1 -26 -15 -26 -4 0 -8 9 -8 20 0 23 15 27 23 6z m117 -36
c11 -11 20 -26 20 -34 0 -7 10 -16 22 -20 17 -4 20 -8 12 -16 -8 -8 -19 -5
-38 13 -14 13 -26 29 -26 36 0 6 -4 11 -10 11 -5 0 -10 7 -10 15 0 20 6 19 30
-5z m140 -28 c0 -17 -39 -44 -55 -39 -15 7 -20 28 -8 40 9 10 63 9 63 -1z
m-292 -28 c1 -10 -4 -28 -12 -39 -14 -19 -15 -19 -27 7 -10 22 -9 30 1 43 16
20 34 14 38 -11z m-188 -64 c0 -5 -4 -10 -10 -10 -5 0 -10 5 -10 10 0 6 5 10
10 10 6 0 10 -4 10 -10z m-130 -467 c0 -21 -3 -24 -9 -14 -5 8 -7 20 -4 28 8
21 13 15 13 -14z m0 -350 c-1 -21 -13 -53 -21 -53 -16 0 -22 30 -9 45 13 16
30 20 30 8z m30 -302 c0 -6 -4 -13 -10 -16 -5 -3 -10 1 -10 9 0 9 5 16 10 16
6 0 10 -4 10 -9z m3644 -216 c41 -9 21 -23 -49 -35 -33 -5 -75 -12 -92 -16
-25 -5 -34 -2 -39 11 -4 9 -1 22 5 28 11 11 111 26 136 21 6 -1 23 -5 39 -9z
m-3564 -26 c0 -24 -4 -30 -17 -27 -29 6 -20 57 10 58 4 0 7 -14 7 -31z m-50
-56 c0 -12 -6 -14 -27 -8 -39 9 -45 17 -31 47 l13 26 22 -25 c13 -13 23 -31
23 -40z m4060 22 c0 -26 -14 -33 -25 -15 -9 14 1 40 15 40 5 0 10 -11 10 -25z
m-3990 -45 c0 -10 -5 -22 -10 -25 -13 -8 -24 20 -16 41 8 20 26 9 26 -16z
m4043 -26 c4 -25 2 -41 -8 -51 -13 -13 -15 -11 -15 9 0 13 -5 29 -11 35 -14
14 -5 43 14 43 9 0 17 -15 20 -36z m-4117 8 c6 -4 15 -22 19 -41 l7 -34 -31
22 c-30 22 -38 40 -24 54 8 9 15 9 29 -1z m3681 -76 c10 -49 11 -82 5 -115 -6
-25 -8 -71 -5 -102 3 -36 1 -59 -6 -63 -6 -4 -11 -25 -11 -46 0 -29 -5 -42
-20 -50 -32 -17 -35 12 -10 81 21 56 22 71 18 215 -6 169 5 199 29 80z m-3568
-59 c-5 -17 -9 -34 -9 -37 -2 -17 -29 50 -30 71 0 36 12 44 32 20 13 -17 15
-28 7 -54z m2876 -70 c14 -30 25 -59 25 -66 0 -7 13 -17 29 -22 16 -6 32 -17
35 -25 3 -8 17 -14 31 -14 14 0 25 -4 25 -9 0 -4 20 -14 44 -21 25 -7 53 -21
62 -31 9 -11 27 -19 40 -19 12 0 41 -18 65 -40 37 -34 43 -45 41 -76 -5 -63
-66 -106 -179 -124 -37 -7 -84 -15 -103 -20 -19 -5 -63 -12 -97 -15 -62 -6
-62 -6 -108 36 -28 26 -45 50 -45 64 0 13 -7 36 -15 51 -8 16 -15 40 -15 53 0
14 -7 32 -16 42 -12 13 -16 37 -16 89 1 84 29 146 77 169 17 8 37 18 45 22 34
18 50 9 75 -44z m-590 -77 c14 -5 30 -21 35 -35 15 -38 12 -150 -6 -230 -9
-38 -18 -87 -21 -107 -3 -21 -11 -42 -19 -49 -8 -6 -14 -23 -14 -38 0 -19 -10
-33 -38 -51 -20 -14 -41 -30 -45 -37 -4 -7 -13 -13 -20 -13 -7 0 -29 -11 -49
-25 -20 -14 -44 -25 -53 -25 -8 0 -23 -4 -33 -9 -38 -22 -235 -60 -362 -71
-178 -16 -289 -4 -330 35 -15 15 -30 41 -33 58 -3 18 -12 73 -21 124 -17 98
-11 169 17 201 8 9 18 27 21 40 4 13 15 22 26 22 11 0 35 14 53 30 43 37 54
37 69 3 l12 -28 4 41 c3 39 6 42 38 48 41 8 54 2 54 -25 0 -30 47 -86 82 -98
31 -11 40 -9 72 18 10 9 34 16 54 16 42 0 54 22 18 31 -33 8 -33 22 -1 34 28
11 33 28 10 36 -8 4 -15 10 -15 15 0 13 34 11 47 -2 17 -17 60 -3 66 21 5 21
43 40 92 46 76 9 142 22 165 32 26 12 81 9 125 -8z m-400 0 c-3 -5 -10 -10
-16 -10 -5 0 -9 5 -9 10 0 6 7 10 16 10 8 0 12 -4 9 -10z m2155 -96 c0 -12 9
-33 21 -48 24 -30 40 -146 21 -146 -6 0 -14 17 -17 38 -12 70 -15 79 -40 106
-14 15 -25 37 -25 50 0 13 -7 29 -15 36 -8 7 -15 24 -15 37 0 25 1 24 35 -13
19 -21 35 -48 35 -60z m-1445 -6 c27 -32 33 -76 13 -96 -10 -10 -10 -15 2 -22
8 -5 17 -7 21 -4 10 6 18 -22 21 -78 2 -25 7 -46 12 -45 5 1 20 -14 33 -33 13
-19 39 -51 58 -71 l33 -36 68 9 c38 5 79 6 91 3 26 -6 184 20 226 36 37 16
134 6 155 -14 15 -16 19 -35 38 -217 15 -135 15 -249 0 -314 -9 -37 -16 -78
-16 -90 0 -13 -6 -29 -14 -35 -19 -16 -30 -92 -35 -239 -1 -36 -5 -44 -26 -52
-22 -8 -25 -15 -25 -60 0 -27 -2 -50 -4 -50 -2 0 -11 3 -20 6 -20 8 -20 27 -1
83 10 27 12 47 6 55 -5 6 -21 47 -37 90 -16 46 -38 88 -52 100 -13 12 -39 45
-58 74 -19 28 -40 52 -48 52 -7 0 -21 11 -30 25 -10 15 -26 25 -40 25 -12 0
-25 3 -28 6 -5 5 7 62 26 122 7 21 6 23 -12 13 -29 -16 -32 -14 -32 18 0 27
-14 41 -42 41 -13 0 0 -73 15 -82 6 -4 8 -10 4 -14 -3 -4 -13 -1 -22 6 -12 10
-20 7 -43 -16 -34 -34 -97 -74 -117 -74 -8 0 -17 -5 -20 -10 -4 -6 -22 -17
-42 -25 -29 -12 -33 -18 -24 -29 7 -8 23 -17 36 -20 29 -7 32 -24 8 -42 -15
-10 -16 -16 -6 -32 6 -11 9 -23 6 -26 -10 -10 -83 -7 -105 5 -14 8 -23 8 -31
0 -14 -14 -54 -14 -62 -1 -9 15 -33 12 -77 -7 -29 -13 -38 -22 -36 -38 2 -14
10 -19 25 -18 28 3 51 -23 34 -40 -9 -9 -16 -9 -32 1 -12 8 -23 11 -26 9 -6
-7 12 -41 33 -61 30 -30 9 -36 -24 -7 -31 29 -33 30 -68 15 -38 -16 -41 -37
-6 -42 12 -2 22 -10 22 -18 0 -17 -12 -18 -27 -3 -7 7 -19 9 -27 6 -18 -7 -22
-57 -5 -57 16 0 93 -79 85 -87 -3 -4 -16 3 -29 15 -14 13 -36 22 -55 22 -24 0
-35 7 -49 30 -10 17 -26 30 -37 30 -10 0 -25 8 -32 17 -7 10 -15 15 -19 12 -3
-4 5 -19 19 -34 15 -16 26 -39 26 -53 0 -13 11 -37 25 -54 14 -16 25 -36 25
-43 0 -14 29 -35 48 -35 4 0 24 14 43 31 35 31 70 53 102 65 12 4 16 13 12 25
-8 25 32 26 51 2 11 -16 13 -16 25 10 15 34 35 35 43 2 4 -14 10 -25 15 -25
15 0 33 30 29 47 -4 15 3 18 39 19 25 1 51 9 62 18 9 9 25 16 34 16 11 0 17 8
17 25 0 20 5 25 24 25 14 0 28 -5 31 -10 4 -6 14 -8 23 -6 10 3 23 1 31 -4 12
-7 13 -13 3 -35 -11 -24 -10 -27 8 -32 11 -3 20 -10 20 -15 0 -11 -34 -23 -47
-17 -4 2 -10 -9 -13 -26 -4 -25 -11 -31 -43 -36 -47 -7 -66 -24 -49 -41 7 -7
12 -22 12 -35 0 -13 1 -23 3 -23 1 0 24 11 51 25 57 29 81 32 72 10 -3 -8 -9
-22 -12 -30 -4 -10 -2 -15 7 -13 7 2 17 -9 23 -24 8 -22 6 -31 -9 -48 -18 -20
-18 -21 3 -64 12 -24 22 -53 22 -65 0 -19 -5 -22 -27 -19 -25 3 -29 -1 -37
-39 -6 -31 -14 -43 -27 -43 -10 0 -21 5 -24 10 -10 16 -54 11 -73 -8 -10 -10
-34 -30 -54 -46 -21 -15 -40 -36 -43 -47 -9 -26 -27 -24 -23 3 4 31 -20 34
-32 4 -5 -14 -14 -25 -19 -24 -18 5 -101 -74 -101 -96 0 -12 -5 -27 -11 -33
-12 -12 -4 -33 12 -33 5 0 12 8 16 18 3 9 12 24 19 32 7 8 15 26 18 40 2 14 3
-5 0 -42 -2 -38 -1 -68 4 -68 13 0 39 32 46 58 14 44 33 20 37 -48 4 -57 0
-67 -25 -63 -18 4 -25 0 -29 -18 -4 -13 -3 -27 2 -32 8 -8 4 -126 -4 -154 -3
-9 -11 -9 -35 0 -29 11 -31 14 -25 49 7 37 -5 52 -21 27 -3 -6 -17 -9 -30 -6
-14 2 -28 -1 -32 -8 -4 -7 -17 -17 -29 -24 -13 -6 -23 -18 -23 -26 0 -22 -25
-18 -41 6 -12 17 -17 18 -32 7 -14 -11 -15 -19 -7 -47 5 -19 7 -38 3 -44 -8
-14 -52 44 -53 71 0 18 -6 22 -29 22 -18 0 -31 6 -36 17 -6 16 -8 15 -25 -7
-15 -20 -20 -22 -34 -11 -9 7 -16 22 -16 32 0 22 -11 24 -27 8 -9 -9 -17 -3
-33 24 -21 35 -23 36 -43 22 -31 -22 -42 -19 -58 17 -21 47 -39 48 -39 0 0
-23 -6 -45 -15 -52 -12 -10 -16 -8 -25 15 -13 34 -13 62 0 70 6 3 10 22 10 41
0 20 5 44 11 56 15 29 3 68 -22 68 -17 0 -18 3 -9 20 6 12 8 30 5 40 -7 22 27
155 51 201 8 17 23 33 32 36 9 3 29 19 44 35 19 20 36 28 61 28 23 0 47 10 72
30 21 17 50 30 65 30 15 0 33 7 40 15 7 8 22 15 34 15 21 0 21 0 -1 18 -25 19
-43 69 -43 119 0 36 -15 43 -36 16 -11 -16 -13 -11 -8 35 5 59 -6 67 -30 20
-16 -33 -60 -88 -71 -88 -11 0 -4 24 12 43 17 18 17 19 -2 33 -25 18 -45 18
-45 -1 0 -11 -7 -14 -24 -9 -18 4 -27 1 -36 -15 -14 -27 -50 -28 -50 -1 0 11
-4 20 -10 20 -5 0 -10 -21 -10 -47 0 -42 -1 -45 -13 -28 -18 24 -37 11 -37
-26 0 -22 -6 -32 -24 -39 -30 -11 -46 -39 -46 -79 0 -16 -4 -33 -10 -36 -5 -3
-10 -17 -10 -31 0 -13 -9 -29 -20 -36 -11 -7 -20 -23 -20 -36 0 -13 -5 -32
-10 -43 -8 -14 -7 -25 4 -41 9 -15 14 -53 15 -105 2 -80 1 -82 -29 -104 -16
-13 -33 -31 -36 -42 -5 -17 -7 -17 -24 -2 -10 9 -24 30 -30 46 -14 34 -17 35
-41 13 -16 -15 -19 -14 -31 5 -18 29 -31 26 -68 -15 l-31 -36 -30 28 c-30 29
-38 71 -18 91 21 21 3 41 -35 41 -36 0 -36 0 -36 -42 0 -30 -6 -48 -19 -60
-11 -10 -21 -30 -23 -45 -2 -15 -9 -26 -18 -26 -25 0 -23 34 4 74 31 45 32 57
6 71 -11 6 -20 17 -20 25 0 20 -27 19 -38 -2 -9 -15 -12 -14 -38 6 -16 13 -32
30 -37 39 -4 10 -5 7 -1 -8 3 -14 8 -41 11 -60 5 -31 4 -33 -11 -21 -9 7 -16
19 -16 26 0 7 -7 18 -15 25 -8 7 -15 27 -15 44 l0 31 -18 -23 c-14 -18 -24
-22 -44 -17 -21 6 -26 3 -32 -19 -8 -33 -26 -34 -26 -2 0 16 -7 27 -20 31 -13
4 -20 15 -20 31 0 15 -6 24 -15 24 -8 0 -15 -6 -15 -14 0 -7 7 -19 15 -26 19
-16 19 -39 -1 -47 -33 -12 -94 81 -94 143 0 29 -16 31 -25 4 -3 -11 -11 -20
-16 -20 -5 0 -14 9 -21 20 -18 28 -38 25 -38 -4 0 -36 -20 -43 -41 -15 -23 31
-31 71 -16 84 17 15 37 52 37 69 0 23 -17 28 -34 10 -17 -17 -22 -49 -6 -39
14 9 12 -7 -5 -29 -9 -11 -20 -16 -31 -12 -13 5 -14 9 -4 21 14 16 5 35 -16
35 -20 0 -17 17 6 33 12 9 18 20 14 30 -3 8 2 27 11 41 17 26 15 56 -5 56 -6
0 -16 -11 -22 -25 -7 -15 -17 -24 -25 -20 -7 3 -20 8 -28 11 -10 4 -15 0 -15
-10 0 -25 -31 -32 -46 -11 -8 10 -14 24 -14 31 0 17 31 27 44 14 5 -5 14 -10
18 -10 14 0 8 22 -9 36 -16 12 -16 15 -3 24 20 13 26 13 44 -5 8 -8 17 -12 20
-7 7 12 -52 72 -72 72 -21 1 -54 44 -51 68 1 9 -8 40 -21 67 -19 43 -23 47
-30 30 -8 -19 -9 -19 -9 3 -1 13 5 22 13 22 12 0 13 6 6 28 -5 15 -11 42 -14
60 -2 19 -8 37 -12 40 -4 4 -4 -12 0 -35 7 -51 0 -73 -25 -73 -14 0 -19 7 -19
30 0 17 -9 39 -21 51 -19 19 -21 30 -17 95 4 64 3 74 -11 74 -13 0 -16 8 -13
38 3 28 -1 42 -17 56 -21 19 -41 15 -41 -10 0 -22 -18 -17 -26 8 -3 12 -6 46
-6 75 0 29 -4 53 -9 53 -12 0 -11 77 1 100 8 14 6 30 -6 57 -20 45 -26 152
-11 172 9 10 5 18 -16 33 -32 23 -34 35 -7 40 27 4 30 22 5 27 -29 5 -36 23
-20 47 12 18 11 23 -6 37 -10 9 -16 23 -13 31 7 18 88 12 143 -10 18 -8 44
-14 56 -14 12 0 44 -8 71 -18 83 -32 177 -61 219 -68 22 -4 48 -11 58 -16 9
-5 50 -17 90 -28 39 -10 96 -28 124 -39 63 -23 128 -35 143 -26 7 4 7 12 0 25
-6 10 -6 21 -1 24 13 8 44 -30 45 -56 1 -16 10 -24 33 -30 18 -5 35 -13 38
-18 8 -13 35 -13 35 -1 0 5 -11 23 -25 39 -41 49 -27 82 21 48 15 -11 19 -27
19 -73 0 -47 3 -58 18 -61 10 -2 17 -13 17 -26 0 -21 21 -55 76 -124 18 -21
33 -27 85 -33 105 -10 369 2 418 19 14 5 51 15 81 22 122 27 232 66 279 97 19
13 38 23 44 23 15 0 89 70 111 104 35 55 56 100 56 119 0 10 13 57 29 105 16
48 32 100 36 116 3 17 22 44 41 62 28 27 42 32 79 32 37 0 49 -5 70 -30z m630
-7 c7 -12 -12 -24 -25 -16 -11 7 -4 25 10 25 5 0 11 -4 15 -9z m-3826 -40 c2
0 -4 -10 -14 -21 -18 -20 -17 -20 13 -20 17 0 34 5 37 10 3 6 1 10 -4 10 -6 0
-11 5 -11 11 0 6 8 9 18 7 9 -2 16 -9 15 -14 -1 -5 23 -25 52 -44 81 -52 73
-72 -25 -62 -30 3 -61 12 -69 20 -9 9 -24 11 -40 7 -31 -7 -33 -7 -94 3 -26 4
-48 12 -49 17 0 6 16 18 36 28 30 14 35 20 27 35 -9 17 -5 18 47 17 31 -1 59
-3 61 -4z m4091 -66 c0 -16 -27 -32 -37 -21 -7 7 16 36 28 36 5 0 9 -7 9 -15z
m-80 -45 c0 -5 -7 -10 -16 -10 -8 0 -12 5 -9 10 3 6 10 10 16 10 5 0 9 -4 9
-10z m-3980 -41 c11 -20 83 -58 130 -69 14 -3 30 -17 37 -31 7 -15 27 -32 43
-39 27 -11 30 -16 24 -44 -5 -29 -2 -33 28 -46 31 -14 33 -18 30 -57 -2 -32 1
-43 12 -43 8 0 18 5 21 10 13 22 20 8 17 -34 -3 -36 1 -48 21 -69 27 -26 37
-25 37 5 0 10 4 18 9 18 13 0 21 -26 21 -70 0 -21 6 -43 15 -50 8 -7 15 -29
15 -49 0 -20 5 -42 11 -48 7 -7 12 -59 13 -130 2 -96 6 -127 24 -168 26 -61
41 -127 42 -182 0 -35 -6 -47 -32 -72 -47 -44 -91 -48 -158 -14 -30 15 -68 40
-84 54 -54 51 -71 64 -91 74 -11 6 -24 19 -30 30 -6 11 -19 32 -29 47 -14 22
-17 38 -11 74 7 51 -5 70 -35 54 -22 -12 -64 16 -56 36 4 10 -7 22 -30 36 -28
17 -35 26 -31 44 3 16 -1 25 -12 29 -9 3 -34 34 -56 69 -22 36 -50 69 -62 75
-13 6 -23 17 -23 26 0 8 -11 22 -25 31 -22 14 -37 64 -19 64 17 0 84 -67 94
-93 7 -21 13 -28 21 -20 11 11 2 63 -11 63 -5 0 -12 9 -15 20 -4 11 -20 27
-36 36 -27 13 -30 20 -27 52 2 35 1 37 -25 34 -33 -3 -33 0 -5 38 17 24 24 27
40 19 27 -14 58 14 58 53 0 23 -4 28 -24 28 -13 0 -29 -7 -36 -15 -7 -8 -16
-15 -21 -15 -13 0 -11 45 3 75 9 21 9 31 0 46 -7 10 -12 24 -12 31 0 17 41 58
57 58 8 0 12 4 8 9 -8 14 11 23 69 31 80 12 85 11 96 -11z m158 4 c2 -8 -5
-13 -17 -13 -12 0 -21 6 -21 16 0 18 31 15 38 -3z m1552 -63 c0 -27 -4 -50
-10 -50 -5 0 -10 23 -10 50 0 28 5 50 10 50 6 0 10 -22 10 -50z m-2034 -7
c-10 -10 -19 5 -10 18 6 11 8 11 12 0 2 -7 1 -15 -2 -18z m5038 -28 c3 -8 3
-22 -1 -31 -5 -13 -7 -13 -14 -2 -11 17 -11 48 0 48 5 0 11 -7 15 -15z m-200
-31 c19 -7 21 -34 3 -34 -14 0 -37 20 -37 32 0 10 13 10 34 2z m-4787 -266
c-3 -8 -6 -5 -6 6 -1 11 2 17 5 13 3 -3 4 -12 1 -19z m3593 -558 c0 -5 -4 -10
-10 -10 -5 0 -10 5 -10 10 0 6 5 10 10 10 6 0 10 -4 10 -10z m-292 -132 c16
-16 15 -28 0 -28 -22 0 -41 17 -34 29 9 14 19 14 34 -1z m702 -35 c0 -20 -3
-24 -11 -16 -7 7 -9 19 -6 27 10 24 17 19 17 -11z m-92 -30 c6 -10 13 -34 17
-53 l7 -35 -26 24 c-16 15 -26 35 -26 53 0 31 15 37 28 11z m-48 -72 c0 -35
-27 -62 -41 -40 -13 20 -11 30 8 51 23 26 33 22 33 -11z m-2562 -26 c-3 -3 -9
2 -12 12 -6 14 -5 15 5 6 7 -7 10 -15 7 -18z m1832 15 c0 -5 -4 -10 -10 -10
-5 0 -10 5 -10 10 0 6 5 10 10 10 6 0 10 -4 10 -10z m764 -86 c5 -17 2 -32 -7
-43 -28 -33 -28 -40 3 -56 35 -18 39 -39 10 -57 -25 -16 -26 -57 -2 -84 14
-15 18 -43 21 -145 2 -86 0 -129 -8 -133 -6 -4 -15 3 -21 18 -13 35 -30 33
-30 -2 0 -35 -9 -45 -27 -31 -9 9 -13 8 -14 0 -1 -6 -2 -17 -3 -23 0 -7 -9
-14 -20 -16 -17 -4 -18 1 -12 55 11 86 16 102 36 108 37 12 44 32 21 62 -19
24 -21 34 -15 96 6 66 5 71 -17 88 -23 17 -23 18 -5 25 12 5 21 3 24 -4 2 -7
10 -12 18 -12 16 0 20 55 4 65 -6 3 -17 20 -26 37 -15 29 -15 30 5 23 17 -5
21 -2 21 18 0 44 34 53 44 11z m180 -1 c4 -10 -1 -25 -14 -37 l-20 -20 0 30
c0 44 21 61 34 27z m-1107 -39 c9 -23 -11 -38 -26 -20 -13 16 -7 36 10 36 5 0
12 -7 16 -16z m783 -270 c0 -45 -24 -42 -28 4 -2 24 1 32 12 32 12 0 16 -10
16 -36z m-2131 -35 c21 -27 23 -36 15 -67 -13 -53 -28 -49 -42 11 -21 93 -14
108 27 56z m1981 -19 c0 -5 -4 -10 -10 -10 -5 0 -10 5 -10 10 0 6 5 10 10 10
6 0 10 -4 10 -10z m-1843 -105 c-4 -8 -11 -15 -17 -15 -7 0 -7 6 0 21 13 23
26 19 17 -6z m880 -97 c-3 -8 -6 -5 -6 6 -1 11 2 17 5 13 3 -3 4 -12 1 -19z
m-245 -24 c3 -3 -1 -19 -9 -35 -8 -16 -12 -40 -9 -52 3 -12 1 -28 -3 -36 -13
-20 -33 -2 -27 24 3 12 -1 36 -10 54 -8 17 -13 35 -9 41 7 11 58 14 67 4z
m161 -10 c3 -3 3 -13 0 -21 -5 -12 -7 -12 -14 -1 -15 23 -4 40 14 22z m-73
-59 c0 -17 -6 -22 -30 -22 -38 0 -48 26 -18 48 27 21 48 9 48 -26z m170 17 c0
-5 -11 -19 -25 -32 -20 -19 -25 -20 -25 -8 0 30 12 48 31 48 10 0 19 -4 19 -8z
m1519 -11 c17 -11 7 -41 -12 -41 -8 0 -20 7 -28 16 -10 13 -10 17 2 25 17 11
21 11 38 0z m-1984 -30 c3 -5 1 -12 -5 -16 -5 -3 -10 1 -10 9 0 18 6 21 15 7z
m1990 -40 c7 -12 -12 -24 -25 -16 -11 7 -4 25 10 25 5 0 11 -4 15 -9z m-1427
-85 c5 -26 -7 -68 -18 -61 -15 9 -13 88 3 83 6 -3 14 -13 15 -22z m-198 10 c0
-3 -4 -8 -10 -11 -5 -3 -10 -1 -10 4 0 6 5 11 10 11 6 0 10 -2 10 -4z m690
-36 c0 -5 -4 -10 -10 -10 -5 0 -10 5 -10 10 0 6 5 10 10 10 6 0 10 -4 10 -10z
m910 -5 c0 -8 -4 -15 -10 -15 -5 0 -10 7 -10 15 0 8 5 15 10 15 6 0 10 -7 10
-15z m-1167 -34 c6 -24 0 -31 -19 -24 -18 7 -18 43 0 43 7 0 16 -9 19 -19z
m-1703 -5 c0 -11 -19 -15 -25 -6 -3 5 1 10 9 10 9 0 16 -2 16 -4z m2008 -50
c3 -12 -1 -17 -10 -14 -7 3 -15 13 -16 22 -3 12 1 17 10 14 7 -3 15 -13 16
-22z m-1878 -41 c0 -16 -30 -35 -55 -35 -24 0 -14 32 15 47 26 13 40 9 40 -12z
m103 -30 c17 -19 36 -35 43 -35 8 0 18 -9 24 -20 6 -11 17 -20 25 -20 7 0 27
-12 44 -26 17 -14 47 -30 66 -35 19 -6 51 -26 70 -45 19 -18 41 -34 48 -34 12
0 45 -35 69 -73 5 -8 13 -6 26 6 10 9 26 17 36 17 26 0 56 -19 56 -35 0 -27
43 -57 73 -51 23 5 30 2 34 -13 3 -10 20 -27 39 -37 38 -21 40 -38 4 -39 -13
0 -25 -6 -28 -14 -3 -10 1 -12 16 -9 23 6 38 -6 44 -37 3 -17 14 -21 68 -27
61 -6 66 -5 85 18 25 29 45 17 45 -26 0 -16 12 -37 30 -55 29 -28 30 -28 152
-27 82 1 158 8 228 22 58 12 120 23 139 24 18 2 38 10 43 19 8 15 11 16 33 1
16 -10 32 -13 47 -8 39 13 110 11 115 -3 10 -27 -30 -98 -86 -152 -80 -78
-147 -160 -177 -217 -14 -27 -43 -72 -65 -100 -21 -28 -39 -55 -39 -61 0 -19
-243 -273 -262 -273 -4 0 -29 16 -54 35 -67 51 -93 63 -202 90 l-97 25 -100
103 c-55 56 -118 116 -140 132 -22 16 -62 51 -90 78 -27 27 -66 60 -85 72 -19
12 -57 44 -84 70 -27 25 -77 59 -110 75 -34 15 -82 43 -108 62 -26 18 -74 52
-108 76 -46 32 -60 49 -60 67 0 15 -6 25 -14 25 -20 0 -29 16 -21 40 4 11 15
20 26 20 18 0 17 4 -12 45 -18 25 -37 45 -42 45 -9 0 -7 17 8 53 5 12 2 17
-10 17 -12 0 -15 5 -10 20 4 12 0 31 -9 45 -9 13 -16 34 -16 46 0 11 -9 32
-20 46 -11 14 -20 34 -20 44 0 27 27 24 35 -3 3 -13 10 -32 15 -43 4 -11 11
-28 14 -37 7 -24 33 -23 41 2 10 33 46 60 80 60 26 0 34 7 55 45 30 55 51 57
93 10z m2520 -110 c1 -5 -6 -11 -15 -13 -11 -2 -18 3 -18 13 0 17 30 18 33 0z
m37 -60 c0 -8 -7 -15 -15 -15 -16 0 -20 12 -8 23 11 12 23 8 23 -8z m-2984
-51 c27 -24 30 -46 9 -64 -12 -10 -16 -8 -25 15 -5 14 -10 30 -10 35 0 5 -9
12 -20 15 -11 3 -20 15 -20 26 0 17 3 18 21 7 12 -7 32 -23 45 -34z m855 1 c0
-5 -12 -11 -26 -13 -18 -2 -25 1 -25 13 0 12 7 15 25 13 14 -2 26 -7 26 -13z
m2007 -28 c3 -16 1 -17 -17 -7 -25 13 -28 33 -4 28 10 -2 19 -11 21 -21z m-78
-77 c0 -5 -4 -10 -10 -10 -5 0 -10 5 -10 10 0 6 5 10 10 10 6 0 10 -4 10 -10z
m70 -30 c0 -11 -6 -20 -14 -20 -18 0 -29 16 -21 30 11 18 35 11 35 -10z m-142
-12 c-2 -18 -12 -24 -41 -29 -46 -7 -54 -15 -41 -37 17 -26 44 -26 72 1 15 14
37 28 50 32 18 5 22 2 22 -15 0 -49 -150 -80 -190 -40 -28 28 -25 39 13 55 18
7 41 23 51 34 11 12 30 21 43 21 20 0 24 -5 21 -22z m-2622 -25 c-7 -7 -26 7
-26 19 0 6 6 6 15 -2 9 -7 13 -15 11 -17z m2842 -11 c2 -7 -3 -12 -12 -12 -9
0 -16 7 -16 16 0 17 22 14 28 -4z m-1746 -59 c25 -22 23 -33 -6 -33 -28 0 -40
14 -32 35 7 19 15 19 38 -2z m1682 9 c9 -14 -12 -35 -28 -29 -23 9 -20 37 3
37 11 0 22 -4 25 -8z m-74 -88 c0 -18 -5 -24 -22 -24 -13 0 -30 5 -38 10 -13
9 -12 13 8 30 28 23 52 16 52 -16z m-190 -50 c0 -2 -7 -4 -15 -4 -8 0 -15 4
-15 10 0 5 7 7 15 4 8 -4 15 -8 15 -10z m116 -34 c28 -18 32 -25 23 -36 -20
-24 -55 -16 -93 22 -20 20 -36 38 -36 41 0 12 73 -7 106 -27z m114 26 c0 -3
-4 -8 -10 -11 -5 -3 -10 -1 -10 4 0 6 5 11 10 11 6 0 10 -2 10 -4z m-364 -42
c-5 -13 -10 -14 -18 -6 -6 6 -8 18 -4 28 5 13 10 14 18 6 6 -6 8 -18 4 -28z
m103 2 c5 -13 22 -32 36 -43 35 -25 27 -57 -17 -72 -48 -17 -64 -14 -37 7 26
22 20 57 -9 50 -14 -4 -17 2 -18 31 -1 52 29 70 45 27z m-179 -51 c0 -8 -4
-15 -10 -15 -5 0 -10 7 -10 15 0 8 5 15 10 15 6 0 10 -7 10 -15z m90 -29 c0
-8 -6 -26 -14 -41 l-14 -27 0 39 c0 21 2 41 5 46 6 11 23 -2 23 -17z m209 -35
c16 -10 6 -31 -14 -31 -17 0 -28 17 -20 30 8 12 16 12 34 1z m-66 -68 c17 -10
5 -31 -20 -36 -30 -6 -63 15 -63 40 0 11 9 12 38 7 20 -4 40 -9 45 -11z m-236
-4 c6 -6 22 -17 35 -23 12 -6 24 -19 26 -27 3 -14 -3 -15 -48 -6 -49 9 -57 18
-44 51 7 19 16 20 31 5z m-167 -29 c0 -5 -7 -10 -16 -10 -8 0 -12 5 -9 10 3 6
10 10 16 10 5 0 9 -4 9 -10z m1040 -51 c0 -5 -4 -9 -10 -9 -5 0 -10 7 -10 16
0 8 5 12 10 9 6 -3 10 -10 10 -16z m-1080 -4 c0 -16 -27 -32 -37 -22 -3 4 -3
13 0 22 8 20 37 20 37 0z m410 -6 c0 -5 -7 -9 -15 -9 -15 0 -20 12 -9 23 8 8
24 -1 24 -14z m-325 1 c-3 -5 -10 -10 -16 -10 -5 0 -9 5 -9 10 0 6 7 10 16 10
8 0 12 -4 9 -10z m79 -26 c9 -34 -8 -54 -29 -34 -17 17 -10 60 10 60 7 0 16
-12 19 -26z m196 7 c0 -6 -4 -13 -10 -16 -5 -3 -10 1 -10 9 0 9 5 16 10 16 6
0 10 -4 10 -9z m-90 -9 c0 -5 -9 -17 -19 -26 -21 -19 -37 -7 -27 19 6 16 46
21 46 7z m-1657 -49 c33 -23 38 -31 33 -55 -4 -21 -1 -30 14 -38 32 -17 23
-31 -17 -27 -28 3 -39 9 -41 23 -6 30 -18 37 -39 23 -33 -20 -50 -6 -47 39 1
22 5 45 8 51 12 19 48 12 89 -16z m2510 -9 c-4 -10 -9 -12 -15 -6 -12 12 -1
35 12 27 5 -3 6 -13 3 -21z m-893 -4 c0 -5 -4 -10 -10 -10 -5 0 -10 5 -10 10
0 6 5 10 10 10 6 0 10 -4 10 -10z m-142 -45 c9 -20 19 -25 47 -25 28 0 35 -4
35 -19 0 -11 -9 -22 -20 -26 -26 -8 -60 11 -60 36 0 11 -7 22 -15 25 -8 4 -15
12 -15 20 0 22 16 16 28 -11z m-245 -35 c-3 -11 -12 -20 -19 -20 -17 0 -19 37
-1 43 19 7 26 -1 20 -23z m1044 5 c8 -24 -5 -30 -24 -13 -10 9 -25 18 -33 21
-8 3 0 6 18 6 21 1 35 -5 39 -14z m-2729 -27 c4 -19 -27 -33 -41 -19 -7 7 -6
16 3 26 15 18 34 15 38 -7z m1882 8 c0 -8 -4 -17 -9 -21 -12 -7 -24 12 -16 25
9 15 25 12 25 -4z m1145 4 c11 -17 -5 -32 -21 -19 -8 6 -14 15 -14 20 0 12 27
11 35 -1z m-1215 -26 c0 -18 -26 -18 -33 0 -3 8 -3 16 0 19 9 10 33 -5 33 -19z
m-100 -13 c0 -10 -7 -22 -16 -25 -22 -8 -23 -6 -13 22 10 27 29 29 29 3z m358
-18 c-2 -10 -10 -18 -18 -18 -8 0 -16 8 -18 18 -2 12 3 17 18 17 15 0 20 -5
18 -17z m-158 -3 c0 -5 -4 -10 -10 -10 -5 0 -10 5 -10 10 0 6 5 10 10 10 6 0
10 -4 10 -10z m585 0 c3 -5 -1 -10 -9 -10 -9 0 -16 5 -16 10 0 6 4 10 9 10 6
0 13 -4 16 -10z m-665 -26 c0 -8 -5 -12 -10 -9 -6 4 -8 11 -5 16 9 14 15 11
15 -7z m470 -9 c0 -8 -4 -15 -9 -15 -13 0 -22 16 -14 24 11 11 23 6 23 -9z
m484 0 c-7 -17 -20 -20 -28 -6 -4 5 0 12 6 14 23 9 28 7 22 -8z m-806 -22 c4
-28 -24 -38 -32 -11 -3 12 -3 25 0 30 9 15 29 3 32 -19z m157 7 c0 -7 -6 -15
-12 -17 -8 -3 -13 4 -13 17 0 13 5 20 13 18 6 -3 12 -11 12 -18z m555 -4 c0
-8 -4 -17 -9 -21 -12 -7 -24 12 -16 25 9 15 25 12 25 -4z m-2664 -23 c-10 -10
-19 5 -10 18 6 11 8 11 12 0 2 -7 1 -15 -2 -18z m1733 -4 c14 -40 14 -39 -4
-39 -18 0 -37 34 -29 54 9 25 21 19 33 -15z m161 17 c0 -15 -14 -35 -21 -30
-15 9 -10 34 6 34 8 0 15 -2 15 -4z m134 -4 c2 -4 1 -14 -4 -21 -10 -17 -31
-5 -23 14 6 16 19 20 27 7z m-474 -32 c0 -5 -2 -10 -4 -10 -3 0 -8 5 -11 10
-3 6 -1 10 4 10 6 0 11 -4 11 -10z m1018 -7 c2 -8 -6 -13 -22 -13 -26 0 -40
12 -29 24 11 11 46 2 51 -11z m442 -4 c0 -24 -23 -21 -28 4 -2 10 3 17 12 17
10 0 16 -9 16 -21z m-2500 -28 c0 -16 -28 -20 -34 -5 -4 9 1 14 14 14 11 0 20
-4 20 -9z m-570 -11 c0 -5 -4 -10 -10 -10 -5 0 -10 5 -10 10 0 6 5 10 10 10 6
0 10 -4 10 -10z m180 0 c0 -5 -9 -10 -21 -10 -11 0 -17 5 -14 10 3 6 13 10 21
10 8 0 14 -4 14 -10z m1290 -16 c0 -31 -23 -28 -28 4 -2 15 2 22 12 22 11 0
16 -9 16 -26z m428 13 c14 -17 -2 -42 -22 -34 -20 8 -21 47 -2 47 7 0 18 -6
24 -13z m-1174 -12 c3 -8 17 -15 31 -15 28 0 34 -17 9 -27 -10 -4 -22 1 -30
12 -9 12 -20 16 -37 11 -16 -4 -29 -1 -36 8 -10 12 -7 15 16 19 15 2 31 5 34
6 4 0 9 -6 13 -14z m984 -51 c-10 -10 -28 6 -28 24 0 15 1 15 17 -1 9 -9 14
-19 11 -23z m-321 4 c-3 -8 -6 -5 -6 6 -1 11 2 17 5 13 3 -3 4 -12 1 -19z
m1255 7 c0 -5 -5 -11 -11 -13 -6 -2 -11 4 -11 13 0 9 5 15 11 13 6 -2 11 -8
11 -13z m-1752 -24 c0 -12 -54 -51 -69 -51 -15 0 -14 7 7 35 16 24 62 35 62
16z m441 -44 c-16 -16 -26 20 -10 40 13 15 14 14 17 -7 2 -12 -1 -27 -7 -33z
m1701 -9 c-9 -9 -12 -7 -12 12 0 19 3 21 12 12 9 -9 9 -15 0 -24z m-1207 12
c3 -5 1 -10 -4 -10 -6 0 -11 5 -11 10 0 6 2 10 4 10 3 0 8 -4 11 -10z m1435 0
c0 -5 -5 -10 -11 -10 -5 0 -7 5 -4 10 3 6 8 10 11 10 2 0 4 -4 4 -10z m-2460
-10 c0 -5 -9 -10 -20 -10 -11 0 -20 5 -20 10 0 6 9 10 20 10 11 0 20 -4 20
-10z m250 -5 c0 -8 -9 -15 -20 -15 -11 0 -20 7 -20 15 0 8 9 15 20 15 11 0 20
-7 20 -15z m105 5 c3 -5 -1 -10 -10 -10 -9 0 -13 5 -10 10 3 6 8 10 10 10 2 0
7 -4 10 -10z m102 -22 c-3 -8 -6 -5 -6 6 -1 11 2 17 5 13 3 -3 4 -12 1 -19z
m291 -6 c2 -14 -2 -22 -11 -22 -17 0 -30 27 -21 41 9 16 29 4 32 -19z m-211
-24 c-3 -8 -6 -5 -6 6 -1 11 2 17 5 13 3 -3 4 -12 1 -19z m1999 -5 c-10 -10
-19 5 -10 18 6 11 8 11 12 0 2 -7 1 -15 -2 -18z m-2116 -8 c0 -26 -14 -33 -25
-15 -9 14 1 40 15 40 5 0 10 -11 10 -25z m207 -18 c-6 -19 -22 -6 -25 20 -2
27 -2 27 13 8 8 -10 14 -23 12 -28z m508 23 c3 -5 1 -10 -4 -10 -6 0 -11 5
-11 10 0 6 2 10 4 10 3 0 8 -4 11 -10z m-1120 -10 c-3 -5 -11 -10 -16 -10 -6
0 -7 5 -4 10 3 6 11 10 16 10 6 0 7 -4 4 -10z m2285 -6 c0 -8 -5 -12 -10 -9
-6 4 -8 11 -5 16 9 14 15 11 15 -7z m-160 -14 c0 -5 -2 -10 -4 -10 -3 0 -8 5
-11 10 -3 6 -1 10 4 10 6 0 11 -4 11 -10z m160 -36 c0 -8 -5 -12 -10 -9 -6 4
-8 11 -5 16 9 14 15 11 15 -7z m-1520 -3 c0 -9 -24 -21 -41 -21 -5 0 -9 7 -9
15 0 9 9 15 25 15 14 0 25 -4 25 -9z m-580 -40 c0 -6 -4 -13 -10 -16 -5 -3
-10 1 -10 9 0 9 5 16 10 16 6 0 10 -4 10 -9z m620 -7 c0 -8 -4 -12 -10 -9 -5
3 -10 10 -10 16 0 5 5 9 10 9 6 0 10 -7 10 -16z m-793 -19 c-7 -16 -47 -22
-47 -7 0 9 42 32 49 26 2 -2 1 -10 -2 -19z m347 -13 c-20 -35 -50 -56 -59 -42
-4 6 1 13 9 16 9 3 16 11 16 18 0 9 20 24 48 35 2 0 -4 -12 -14 -27z m231 -7
c0 -28 -29 -25 -33 3 -3 19 0 23 15 20 10 -2 18 -12 18 -23z m290 14 c10 -15
-1 -23 -20 -15 -9 3 -13 10 -10 16 8 13 22 13 30 -1z m-791 -25 c23 -9 20 -34
-3 -34 -22 0 -35 15 -26 30 7 12 8 12 29 4z m346 -3 c0 -6 -4 -13 -10 -16 -5
-3 -10 1 -10 9 0 9 5 16 10 16 6 0 10 -4 10 -9z m690 -17 c0 -8 -4 -12 -10 -9
-5 3 -10 10 -10 16 0 5 5 9 10 9 6 0 10 -7 10 -16z m-879 -24 c15 -9 17 -15 9
-30 -21 -38 -69 -15 -54 25 7 18 18 19 45 5z m2179 -26 c0 -8 -4 -14 -9 -14
-11 0 -22 26 -14 34 9 9 23 -3 23 -20z m-2030 12 c0 -2 -7 -9 -15 -16 -12 -10
-15 -10 -15 4 0 9 7 16 15 16 8 0 15 -2 15 -4z m759 -67 c-19 -12 -24 -2 -8
17 9 11 14 13 17 4 3 -7 -2 -16 -9 -21z m-789 -4 c0 -8 -4 -15 -9 -15 -13 0
-22 16 -14 24 11 11 23 6 23 -9z m-80 -25 c0 -11 -7 -20 -15 -20 -13 0 -14 4
-5 20 6 11 13 20 15 20 3 0 5 -9 5 -20z m365 0 c7 -21 0 -40 -16 -40 -5 0 -9
14 -9 30 0 34 15 40 25 10z m-165 -44 c0 -16 -14 -36 -25 -36 -14 0 -27 25
-18 34 7 7 43 8 43 2z"/>
<path d="M3160 6700 c0 -5 5 -10 10 -10 6 0 10 5 10 10 0 6 -4 10 -10 10 -5 0
-10 -4 -10 -10z"/>
<path d="M3577 6644 c-4 -4 -7 -11 -7 -16 0 -13 50 -6 53 7 2 12 -36 19 -46 9z"/>
<path d="M3700 6620 c0 -13 5 -18 15 -14 8 4 15 12 15 20 0 8 -7 14 -15 14 -8
0 -15 -9 -15 -20z"/>
<path d="M2925 6610 c3 -5 12 -7 20 -3 21 7 19 13 -6 13 -11 0 -18 -4 -14 -10z"/>
<path d="M2356 6443 c-18 -18 -5 -35 24 -31 21 3 35 -1 47 -14 19 -21 43 -24
43 -4 0 17 -47 49 -60 41 -5 -3 -18 -1 -28 4 -11 6 -22 7 -26 4z"/>
<path d="M2105 6340 c-8 -14 18 -44 34 -39 6 3 3 14 -8 28 -13 17 -20 20 -26
11z"/>
<path d="M1720 6269 c0 -5 5 -7 10 -4 6 3 10 8 10 11 0 2 -4 4 -10 4 -5 0 -10
-5 -10 -11z"/>
<path d="M1740 6093 c0 -5 4 -14 9 -22 11 -17 32 -5 24 14 -5 15 -33 21 -33 8z"/>
<path d="M1635 5357 c-12 -10 -15 -16 -6 -21 16 -10 51 3 51 20 0 18 -21 18
-45 1z"/>
<path d="M1585 5340 c-3 -5 -1 -10 4 -10 6 0 11 5 11 10 0 6 -2 10 -4 10 -3 0
-8 -4 -11 -10z"/>
<path d="M1615 5280 c-3 -5 1 -10 9 -10 9 0 16 5 16 10 0 6 -4 10 -9 10 -6 0
-13 -4 -16 -10z"/>
<path d="M1730 5029 c0 -5 5 -7 10 -4 6 3 10 8 10 11 0 2 -4 4 -10 4 -5 0 -10
-5 -10 -11z"/>
<path d="M1700 4996 c-13 -34 -13 -46 0 -46 16 0 33 51 21 63 -7 7 -14 1 -21
-17z"/>
<path d="M3401 4906 c-6 -7 -34 -16 -61 -18 -28 -3 -58 -12 -68 -22 -24 -21
-32 -20 -32 4 0 14 -7 20 -22 20 -20 0 -20 -1 -5 -18 19 -21 13 -32 -15 -32
-11 0 -29 -6 -41 -12 -66 -38 -167 -35 -167 4 0 25 -21 23 -27 -2 -6 -23 -7
-24 -33 -8 -16 10 -23 8 -44 -15 -14 -15 -30 -27 -36 -27 -5 0 -10 -9 -10 -19
0 -32 -19 -35 -30 -5 -10 26 -11 26 -30 9 -16 -14 -23 -16 -32 -7 -16 16 -38
15 -38 -1 0 -8 -9 -22 -21 -33 -20 -18 -22 -18 -34 -1 -19 26 -35 21 -35 -11
0 -18 -9 -37 -25 -50 -21 -18 -23 -26 -15 -47 6 -15 10 -37 10 -51 0 -23 2
-24 38 -18 22 4 44 16 55 30 19 25 51 32 62 14 9 -15 25 -2 18 15 -4 12 3 15
30 15 22 0 46 9 64 23 43 34 70 47 97 47 14 0 28 5 31 10 3 6 33 10 65 10 32
0 62 -4 65 -10 3 -5 14 -10 23 -10 12 0 13 3 5 11 -18 18 -3 39 28 39 15 0 50
5 76 10 59 12 199 31 233 31 20 0 68 18 99 37 3 1 -6 13 -19 27 -13 14 -18 25
-12 25 7 0 12 7 12 15 0 9 -9 15 -24 15 -14 0 -28 5 -31 10 -9 15 -91 12 -104
-4z m-386 -126 c3 -6 -1 -13 -10 -16 -19 -8 -30 0 -20 15 8 14 22 14 30 1z
m-275 -60 c0 -5 -4 -10 -10 -10 -5 0 -10 5 -10 10 0 6 5 10 10 10 6 0 10 -4
10 -10z m-70 -45 c-12 -15 -30 -12 -30 6 0 5 10 9 21 9 18 0 19 -2 9 -15z
m150 0 c0 -8 -6 -15 -14 -15 -20 0 -29 17 -14 23 22 9 28 7 28 -8z"/>
<path d="M4200 4845 c0 -8 5 -15 10 -15 6 0 10 7 10 15 0 8 -4 15 -10 15 -5 0
-10 -7 -10 -15z"/>
<path d="M4140 4790 c0 -5 5 -10 10 -10 6 0 10 5 10 10 0 6 -4 10 -10 10 -5 0
-10 -4 -10 -10z"/>
<path d="M2510 4595 c0 -8 6 -15 14 -15 8 0 16 7 20 15 4 10 -1 15 -14 15 -11
0 -20 -7 -20 -15z"/>
<path d="M4878 4393 c7 -3 16 -2 19 1 4 3 -2 6 -13 5 -11 0 -14 -3 -6 -6z"/>
<path d="M4560 3888 c0 -7 9 -28 21 -47 15 -25 23 -31 31 -23 8 8 6 21 -8 47
-18 34 -44 47 -44 23z"/>
<path d="M1900 3810 c0 -5 5 -10 10 -10 6 0 10 5 10 10 0 6 -4 10 -10 10 -5 0
-10 -4 -10 -10z"/>
<path d="M4150 3640 c0 -16 49 -31 89 -28 24 2 36 8 36 18 0 11 -15 16 -62 18
-40 2 -63 -1 -63 -8z"/>
<path d="M3935 3490 c-3 -5 1 -10 10 -10 9 0 13 5 10 10 -3 6 -8 10 -10 10 -2
0 -7 -4 -10 -10z"/>
<path d="M3965 3360 c3 -5 8 -10 11 -10 2 0 4 5 4 10 0 6 -5 10 -11 10 -5 0
-7 -4 -4 -10z"/>
<path d="M3860 3291 c0 -5 6 -14 14 -20 16 -13 32 2 21 19 -8 12 -35 13 -35 1z"/>
<path d="M4316 3015 c-20 -30 -20 -31 -1 -38 9 -4 20 5 30 25 18 38 18 38 1
38 -7 0 -21 -11 -30 -25z"/>
<path d="M3956 2965 c-3 -8 -15 -15 -27 -15 -25 0 -21 -23 5 -28 18 -4 56 29
56 48 0 16 -27 12 -34 -5z"/>
<path d="M4085 2969 c-10 -15 1 -23 20 -15 9 3 13 10 10 16 -8 13 -22 13 -30
-1z"/>
<path d="M4020 2935 c0 -8 7 -15 15 -15 8 0 15 7 15 15 0 8 -7 15 -15 15 -8 0
-15 -7 -15 -15z"/>
<path d="M4150 2926 c0 -9 5 -16 10 -16 6 0 10 4 10 9 0 6 -4 13 -10 16 -5 3
-10 -1 -10 -9z"/>
<path d="M2385 2790 c-3 -5 -1 -10 4 -10 6 0 11 5 11 10 0 6 -2 10 -4 10 -3 0
-8 -4 -11 -10z"/>
<path d="M2610 2661 c-13 -26 -13 -31 5 -31 9 0 15 9 15 25 0 30 -6 32 -20 6z"/>
<path d="M3530 2324 c0 -8 5 -12 10 -9 6 3 10 10 10 16 0 5 -4 9 -10 9 -5 0
-10 -7 -10 -16z"/>
<path d="M917 4215 c-4 -9 -1 -18 9 -22 22 -8 30 5 12 23 -14 14 -16 14 -21
-1z"/>
<path d="M988 4055 c-3 -14 -2 -25 2 -25 12 0 40 36 33 43 -14 15 -31 6 -35
-18z"/>
<path d="M1260 4040 c0 -5 4 -10 9 -10 6 0 13 5 16 10 3 6 -1 10 -9 10 -9 0
-16 -4 -16 -10z"/>
<path d="M926 3972 c-5 -9 41 -72 54 -72 11 0 40 59 32 64 -17 9 -81 16 -86 8z"/>
<path d="M987 3853 c-3 -18 0 -31 9 -36 8 -4 14 -12 14 -17 0 -12 51 -63 57
-56 2 2 0 13 -6 24 -6 11 -8 28 -5 37 4 9 3 20 -2 24 -5 3 -14 15 -20 26 -17
31 -41 30 -47 -2z"/>
<path d="M1076 3722 c-9 -16 12 -62 28 -62 27 0 29 22 3 47 -14 15 -27 21 -31
15z"/>
<path d="M1423 3707 c-23 -10 -31 -27 -14 -27 5 0 16 -3 24 -6 9 -3 16 3 20
15 7 26 -2 31 -30 18z"/>
<path d="M1460 3647 c0 -7 14 -29 30 -47 23 -26 33 -31 42 -22 9 9 4 20 -22
47 -36 37 -50 43 -50 22z"/>
<path d="M1135 3641 c-6 -11 9 -23 19 -14 9 9 7 23 -3 23 -6 0 -12 -4 -16 -9z"/>
<path d="M1257 3604 c-14 -15 -6 -34 14 -34 14 0 19 5 17 17 -3 18 -20 27 -31
17z"/>
<path d="M2280 1941 c0 -12 9 -20 25 -23 28 -6 29 -4 15 23 -14 24 -40 25 -40
0z"/>
<path d="M2197 1887 c-3 -8 -1 -20 4 -28 11 -19 34 3 26 25 -8 20 -23 21 -30
3z"/>
<path d="M2123 1823 c-17 -6 -17 -43 0 -43 14 0 37 19 37 31 0 10 -23 17 -37
12z"/>
<path d="M2231 1814 c0 -11 3 -14 6 -6 3 7 2 16 -1 19 -3 4 -6 -2 -5 -13z"/>
<path d="M2480 1800 c0 -11 5 -20 10 -20 6 0 10 9 10 20 0 11 -4 20 -10 20 -5
0 -10 -9 -10 -20z"/>
<path d="M2112 1711 c4 -13 18 -16 19 -4 0 4 -5 9 -11 12 -7 2 -11 -2 -8 -8z"/>
<path d="M2792 1620 c-15 -25 -15 -30 2 -30 17 0 30 30 19 41 -5 5 -14 0 -21
-11z"/>
<path d="M2900 1590 c0 -22 1 -23 24 -14 23 9 20 34 -4 34 -13 0 -20 -7 -20
-20z"/>
<path d="M3160 1415 c0 -11 7 -15 23 -13 12 2 22 8 22 13 0 6 -10 11 -22 13
-16 2 -23 -2 -23 -13z"/>
</g>
</svg>
